<?xml version="1.0" standalone="no"?>
<!DOCTYPE svg PUBLIC "-//W3C//DTD SVG 20010904//EN"
 "http://www.w3.org/TR/2001/REC-SVG-20010904/DTD/svg10.dtd">
<svg version="1.0" xmlns="http://www.w3.org/2000/svg"
 width="" height="50" viewBox="0 0 1453.000000 400.000000"
 preserveAspectRatio="xMidYMid meet">

<g transform="translate(0.000000,400.000000) scale(0.100000,-0.100000)"
fill="#000" stroke="none">
<path d="M7170 2921 l0 -309 -59 24 c-317 128 -660 -45 -746 -376 -22 -85 -16
-230 14 -315 78 -221 286 -365 528 -365 l83 0 0 134 0 133 -81 6 c-130 9 -206
55 -262 161 -30 58 -30 173 1 233 50 97 127 145 240 151 63 4 79 1 127 -23 30
-14 70 -44 89 -67 54 -63 66 -111 66 -270 l0 -138 140 0 140 0 0 665 0 665
-140 0 -140 0 0 -309z"/>
<path d="M12060 2820 l0 -140 -90 0 -90 0 0 -140 0 -140 89 0 89 0 4 -187 c4
-170 7 -195 30 -261 33 -93 74 -156 146 -225 97 -92 230 -147 354 -147 l68 0
0 138 0 138 -53 0 c-98 2 -192 61 -237 151 -23 45 -25 60 -28 221 l-4 172 136
0 136 0 0 140 0 140 -135 0 -135 0 0 140 0 140 -140 0 -140 0 0 -140z"/>
<path d="M2540 2290 l0 -390 140 0 140 0 0 148 c0 139 2 151 26 200 48 97 136
152 244 152 134 0 243 -88 271 -218 l11 -52 135 0 136 0 -7 58 c-35 309 -319
529 -624 485 -43 -7 -104 -23 -135 -37 l-57 -25 0 35 0 34 -140 0 -140 0 0
-390z"/>
<path d="M4270 2673 c-219 -37 -399 -211 -446 -433 -39 -182 18 -370 151 -502
103 -103 241 -158 392 -158 l83 0 0 134 0 133 -80 6 c-175 12 -284 118 -283
277 1 77 19 125 71 182 104 115 293 118 399 7 60 -64 76 -117 81 -276 l5 -143
133 0 134 0 0 390 0 390 -135 0 -135 0 0 -35 c0 -19 -2 -35 -5 -35 -3 0 -23 9
-45 20 -79 40 -222 59 -320 43z"/>
<path d="M5080 2290 l0 -390 135 0 135 0 0 122 c0 154 17 221 73 285 131 148
371 115 453 -62 23 -49 24 -57 24 -357 l0 -308 141 0 141 0 -4 328 c-3 322 -4
328 -29 398 -79 219 -260 356 -489 371 -93 6 -191 -12 -259 -46 -44 -23 -51
-20 -51 21 l0 28 -135 0 -135 0 0 -390z"/>
<path d="M8042 2664 c-173 -46 -331 -188 -392 -351 -39 -104 -46 -180 -26
-290 33 -186 137 -338 283 -412 34 -17 65 -31 68 -31 3 0 5 61 5 135 0 132 -1
135 -29 181 -32 49 -61 157 -61 222 0 95 75 209 171 258 129 65 287 -3 356
-153 23 -49 25 -65 20 -137 -5 -87 -26 -151 -64 -203 -21 -30 -23 -41 -23
-167 0 -75 3 -136 6 -136 27 0 141 76 194 130 72 72 118 155 145 260 22 83 17
252 -9 325 -95 268 -391 438 -644 369z"/>
<path d="M8890 2130 l0 -550 135 0 135 0 0 339 c0 216 4 350 11 368 13 34 55
80 91 99 39 20 122 18 168 -6 82 -42 100 -98 100 -317 l0 -163 134 0 134 0 4
188 c3 186 3 189 31 230 72 109 232 109 304 0 l28 -41 3 -349 3 -348 139 0
140 0 0 333 c0 370 -7 426 -61 528 -57 107 -181 201 -300 228 -129 30 -293 -8
-390 -89 l-32 -26 -63 42 c-92 62 -151 79 -264 78 -61 0 -110 -6 -137 -17 -42
-16 -43 -15 -43 3 0 19 -8 20 -135 20 l-135 0 0 -550z"/>
<path d="M10853 2666 c-88 -28 -176 -107 -216 -194 -31 -67 -30 -207 1 -275
30 -66 104 -142 171 -174 l56 -28 250 -3 c138 -1 260 -5 272 -7 13 -3 30 -17
39 -30 14 -21 14 -30 5 -54 -20 -47 -43 -51 -281 -51 l-220 0 0 -135 0 -135
255 0 c294 0 326 7 414 86 168 151 146 421 -45 547 -72 48 -136 57 -391 57
-220 0 -234 1 -253 20 -25 25 -26 72 -2 93 16 15 63 17 413 19 l394 3 3 138 3
137 -413 -1 c-310 0 -423 -4 -455 -13z"/>
<path d="M13150 2290 l0 -390 138 0 137 0 0 138 c0 110 4 146 19 186 88 229
405 237 507 12 10 -23 19 -56 19 -73 l0 -33 140 0 140 0 0 38 c0 162 -137 370
-298 451 -150 75 -347 80 -482 11 -52 -26 -53 -26 -48 15 l4 35 -138 0 -138 0
0 -390z"/>
<path d="M881 2614 c-86 -23 -150 -63 -231 -143 l-75 -75 50 -8 c179 -29 261
-57 371 -128 116 -76 198 -169 263 -297 41 -83 40 -95 -3 -17 -66 124 -180
249 -278 306 -60 36 -166 46 -264 25 -74 -16 -209 -77 -186 -84 21 -8 16 -168
-8 -231 -11 -29 -23 -81 -27 -114 -7 -70 -16 -67 97 -25 36 14 97 27 135 30
68 6 68 6 16 -4 -29 -5 -69 -17 -88 -26 -39 -18 -149 -119 -118 -107 92 33
194 64 211 64 11 0 29 -9 40 -21 16 -18 26 -20 69 -14 27 3 86 6 129 6 l79 1
48 -48 c46 -45 48 -46 81 -35 18 6 65 14 105 18 l72 6 48 -39 c85 -70 90 -70
15 0 -70 66 -83 90 -43 79 20 -5 131 27 186 54 17 9 54 32 84 52 l54 36 -36 3
c-35 3 -36 5 -42 50 -13 92 -75 291 -113 357 -4 8 -7 -44 -7 -113 0 -93 -5
-143 -19 -187 -21 -71 -77 -192 -101 -220 -9 -11 -6 0 8 25 90 165 121 405 72
567 -30 99 -154 206 -292 250 -87 27 -216 30 -302 7z m-3 -751 c-16 -2 -40 -2
-55 0 -16 2 -3 4 27 4 30 0 43 -2 28 -4z m90 -10 c-10 -2 -26 -2 -35 0 -10 3
-2 5 17 5 19 0 27 -2 18 -5z"/>
<path d="M2540 1715 l0 -135 140 0 140 0 0 135 0 135 -140 0 -140 0 0 -135z"/>
<path d="M7170 1715 l0 -135 140 0 140 0 0 135 0 135 -140 0 -140 0 0 -135z"/>
<path d="M10610 1715 l0 -135 140 0 140 0 0 135 0 135 -140 0 -140 0 0 -135z"/>
</g>
</svg>
